{"title":"Willem van Oranje (1983) (Disc 2-3)(Tv-serie)(DUTCH) 2Lions-Team","uid":5674050,"size":8297529294,"categoryP":"video","categoryS":"movies_dvdr","magnet":"?xt=urn:btih:fd81cdb37fb2b058c3274a2a0130c72e9a48a12a&amp;dn=Willem+van+Oranje+%281983%29+%28Disc+2-3%29%28Tv-serie%29%28DUTCH%29+2Lions-Team&amp;tr=udp%3A%2F%2Ftracker.openbittorrent.com%3A80&amp;tr=udp%3A%2F%2Fopen.demonii.com%3A1337&amp;tr=udp%3A%2F%2Ftracker.coppersurfer.tk%3A6969&amp;tr=udp%3A%2F%2Fexodus.desync.com%3A6969","seeders":1,"leechers":0,"uploader":"Pioen","files":20,"time":1278460464,"description":"Willem van Oranje (1983)  (Disc 2-3) Tv-serie)       \n\n \n\nNederland / BelgiÃƒÂ«\nDrama\n460 minuten (miniserie, 3 delen)\n\ngeregisseerd door Walter van der Kamp\nmet Jeroen KrabbÃƒÂ©, Willem Nijholt en Linda van Dyck\n\nHoewel loyaal aan de Spaanse kroon krijgt Willem van Oranje-Nassau gewetensbezwaren als hij de plannen van Philips II hoort. Er worden bloedige inquisities tegen de protestanten in Europa beraamd die ook het Nederlandse volk niet zullen overslaan. Hoewel katholiek, is Willem absoluut tegen iedere vorm van aantasting van de godsdienstvrijheid. Als in 1566 in Brussel de beeldenstorm heeft plaatsgevonden, ÃƒÂ©ÃƒÂ©n van de grootste opstanden tegen de inquisitie, keert Willem zich definitief tegen de Koning van Spanje en kiest hij voor het Nederlandse volk. Vanaf dat moment wordt het zijn doel de Nederlanden te verenigen om zo de Spaanse bezetting tot een halt te roepen\n\n\nEnglish\n\nAs the Dutch title indicates, this series chronicles magnificently the life of William I &quot;the Silent&quot; of Orange, who grew up with his Lutheran family in the princely castle of a minor German countship of Nassau at Dillingen, till at eleven he inherited the vast riches of the prince of Orange (in southern France, with major possessions in the Low Countries), and was sent to the Holy Roman emperor Charles V's sister Margareth's gubernatorial court in Brussels to receive a Catholic education. He soon became a Habsburg confident and high councilor, a gifted diplomat and military officer. However when the persecution of the Protestants -and some other measures- arouses great resistance with the people and many nobles, it gets ever harder to remain loyal to the crown for the Lutheran at heart, who ends up leading the opposition once Charles' heir, king Philip II of Spain, ceases all negotiations and tries to impose his absolute rule by military force, which however only succeeds in splitting the Low Countries in a southern Catholic half under Habsburg control and a northern one, dominated by Calvinists, which ultimately becomes the 'crowned republic' of the Seventeen United Provices under William (and later his heirs, for centuries maintaining his title of Stadholder, theoretically Habsburg governor), painstakingly seeking a diplomatic course amidst the wars and religious civil wars throughout Europe. His personal life is also sketched, including several marriage alliances and a recognized son out of wedlock.\n\n \nDVD Gegevens:\nTitel: Willem van Oranje (Disc 2 Tv-serie) \nMenu: Ja\nExtra's: Ja\nTaal/Geluid: Nederlands (Dolby Digital)\nSubs: Nee\nCover en Label: in disc 1\n\nVideo\nID                               : 224 (0xE0)\nFormat                           : MPEG Video\nFormat version                   : Version 2\nFormat profile                   : Main@Main\nFormat settings, Matrix          : Default\nDuration                         : 23mn 26s\nBit rate mode                    : Constant\nBit rate                         : 5 674 Kbps\nNominal bit rate                 : 5 800 Kbps\nWidth                            : 720 pixels\nHeight                           : 576 pixels\nDisplay aspect ratio             : 4/3\nFrame rate                       : 25.000 fps\nStandard                         : PAL\nColorimetry                      : 4:2:0\nScan type                        : Interlaced\nScan order                       : Top Field First\nBits/(Pixel*Frame)               : 0.547\nStream size                      : 951 MiB (93%)\n\nAudio\nID                               : 128 (0x80)\nFormat                           : AC-3\nFormat/Info                      : Audio Coding 3\nDuration                         : 23mn 26s\nBit rate mode                    : Constant\nBit rate                         : 192 Kbps\nChannel(s)                       : 2 channels\nChannel positions                : L R\nSampling rate                    : 48.0 KHz\nStream size                      : 32.2 MiB (3%)\n\nWeblink : &lt;a href=&quot; http://www.moviemeter.nl/film/33037&quot; rel=&quot;nofollow&quot; target=&quot;_NEW&quot;&gt; http://www.moviemeter.nl/film/33037&lt;/a&gt;\nWeblink : &lt;a href=&quot; http://www.imdb.com/title/tt0149379&quot; rel=&quot;nofollow&quot; target=&quot;_NEW&quot;&gt; http://www.imdb.com/title/tt0149379&lt;/a&gt;\n\n*****************************************\n\nBrought to you by \nPioen\n\n2Lions Team\n\nmeer zien??\nKom dan eens kijken op ons forum \n\n\n\n\n2Lions the site to be for all your Dutch MOVIES and more\n\n******************************************\n\n\nDON T HIT AND RUN Niet gelijk afhaken als de FILM binnen is blijf seeden. \n\nDon`t quit after you finished the download, but keep seeding\n\n\nThere are fake torrents from uploaders who use our team name.\nThose are not ours, or members from our team.\nWe 2Lions-Team are not responsible for the fake posts on our name\n\nWij 2Lions-Team zijn niet verantwoordelijk voor die zieke FAKE posten die op onze naam worden gedaan  \n","torrent":{"xt":"urn:btih:fd81cdb37fb2b058c3274a2a0130c72e9a48a12a","amp;dn":"Willem+van+Oranje+%281983%29+%28Disc+2-3%29%28Tv-serie%29%28DUTCH%29+2Lions-Team","amp;tr":["udp%3A%2F%2Ftracker.openbittorrent.com%3A80","udp%3A%2F%2Fopen.demonii.com%3A1337","udp%3A%2F%2Ftracker.coppersurfer.tk%3A6969","udp%3A%2F%2Fexodus.desync.com%3A6969"],"infoHash":"fd81cdb37fb2b058c3274a2a0130c72e9a48a12a","infoHashBuffer":{"type":"Buffer","data":[253,129,205,179,127,178,176,88,195,39,74,42,1,48,199,46,154,72,161,42]},"announce":[],"urlList":[]}}